<svg xmlns="http://www.w3.org/2000/svg" viewBox="0 0 128 128"><path d="M104.28,128H23.77V56.61H34.21v58c0,1.73,0,1.73,1.73,1.73H92.18c1.65,0,1.65,0,1.65-1.69v-58h10.45Z" fill="#f47f20"/><path d="M64.15,14.55a8.21,8.21,0,0,1-.94,1.36Q38.93,40.24,14.6,64.54A19.51,19.51,0,0,1,11.73,67a5.37,5.37,0,0,1-7.11-.6,5.39,5.39,0,0,1-.75-7.19,12,12,0,0,1,1.56-1.92Q30.5,32.13,55.6,7c2.47-2.47,4.88-5,8-6.77a1.35,1.35,0,0,1,1.56,0A29,29,0,0,1,71.7,5.42q25.41,25.47,50.88,50.87c1.39,1.39,2.56,2.89,2.58,5A5.54,5.54,0,0,1,122,66.43a5.24,5.24,0,0,1-5.79-.33A15.68,15.68,0,0,1,114,64.17Q89.93,40.11,65.88,16c-.41-.42-.76-.9-1.14-1.35Z" fill="#f47f20"/></svg>