<svg xmlns="http://www.w3.org/2000/svg" viewBox="0 0 128 128"><path d="M118.62,55.51c-.17,1.78-.32,3.57-.52,5.34a54.15,54.15,0,0,1-35,45,11.17,11.17,0,0,0-5,3.69q-6.61,8.53-13.28,17c-.2.25-.4.5-.62.73-.95,1-1.61,1-2.49,0-1.24-1.51-2.4-3.1-3.6-4.64q-5.62-7.25-11.25-14.5a10.83,10.83,0,0,0-4.4-3.21A53.83,53.83,0,0,1,15.55,80.1,53.07,53.07,0,0,1,9.7,60.38C8.14,44.61,12.3,30.62,22.86,18.72A54.26,54.26,0,0,1,54.85.83c28.82-5.09,55.7,13.78,62.16,41.3a105.5,105.5,0,0,1,1.41,10.54c0,.39.13.77.2,1.16ZM64.45,10.31c-24-.11-44.82,18.6-44.9,44.49a44.39,44.39,0,1,0,88.77-.27C108.28,29.56,87.42,10,64.45,10.31Z" fill="#f47f20"/><path d="M87.36,65.74c0,2.76,0,5.52,0,8.28,0,1.91-.42,2.3-2.34,2.3-1.5,0-2,.47-2,2,0,.8,0,1.6,0,2.4A3.21,3.21,0,0,1,79.77,84c-2.29,0-3.83-1.41-3.78-3.44,0-.4.13-.79.17-1.18a2.48,2.48,0,0,0-2.41-3c-1.19-.1-2.39,0-3.58,0l-18.23,0c-2.15,0-2.84.73-2.69,2.94.11,1.58,0,3.05-1.44,4.08A3.29,3.29,0,0,1,42.38,81c-.1-.79-.06-1.6-.15-2.39-.19-1.88-1-2.56-2.84-2.38-1,.1-1.4-.2-1.41-1.21,0-6.55-.31-13.11-.09-19.65.17-5.09.93-10.16,1.49-15.23.27-2.5.67-5,1-7.46a6.56,6.56,0,0,1,4.27-5.36,46,46,0,0,1,35.77,0c2.73,1.1,4,3.29,4.49,6.05A147.49,147.49,0,0,1,87.21,55.8c.08,3.31,0,6.63,0,9.94ZM62.62,53V53H79.54c2.94,0,3.76-1.05,3.3-3.94-.58-3.7-1.12-7.41-1.56-11.14-.36-3-1-3.68-4-3.68H48.14a11.56,11.56,0,0,0-1.32.06A2.66,2.66,0,0,0,44.16,37q-.84,6.22-1.73,12.44C42.06,52,43,53,45.59,53Zm0-24.71c-3.23,0-6.47,0-9.7,0-1.19,0-1.8.57-1.75,1.51.06,1.13.82,1.28,1.76,1.28,4.55,0,9.1,0,13.65,0h6c.89,0,1.49-.3,1.51-1.28a1.36,1.36,0,0,0-1.39-1.48,7.7,7.7,0,0,0-1,0ZM82.93,65a3.22,3.22,0,0,0-3.42-3.35,3.27,3.27,0,0,0-3.29,3.38,3.36,3.36,0,1,0,6.71,0ZM45.52,68.37A3.33,3.33,0,0,0,49,64.94a3.36,3.36,0,1,0-3.5,3.43Z" fill="#f47f20"/></svg>