<svg xmlns="http://www.w3.org/2000/svg" viewBox="0 0 128 128"><path d="M64.73,3C67,4.33,68.39,6.48,69.61,8.68c1.89,3.42,3.62,6.93,5.33,10.45,2.46,5.07,5,10.12,7.2,15.3,2.11,4.89,5.71,7.19,10.91,7.78,6.33.73,12.63,1.8,18.94,2.8,3.52.55,7,1.21,10.52,1.92a16.28,16.28,0,0,1,3.28,1.18c2.38,1,2.87,2.4,1.32,4.52a52.72,52.72,0,0,1-5.67,6.7c-6.09,5.94-12.34,11.72-18.5,17.58-3.61,3.43-4.46,7.64-3.6,12.41,1.51,8.5,3,17,4.34,25.53a36,36,0,0,1,.06,8c-.13,1.8-1.36,2.44-3.17,2.05a43.6,43.6,0,0,1-11.32-4.66q-10.17-5.5-20.3-11.09c-3.86-2.14-7.58-1.87-11.38.15-7.34,3.89-14.68,7.8-22.11,11.51a58.39,58.39,0,0,1-8.71,3.34c-2.6.81-3.56,0-3.83-2.78-.42-4.25.38-8.39,1.09-12.53,1.41-8.11,2.92-16.19,4.34-24.28a7.21,7.21,0,0,0-2.28-6.46q-3.78-3.88-7.63-7.7C13.65,65.58,8.8,60.85,4.06,56A26,26,0,0,1,.81,51.69c-1.46-2.33-1-3.85,1.64-4.7a52,52,0,0,1,8.29-2.05C19,43.7,27.18,42.65,35.41,41.53c1-.13,2-.19,2.91-.35a8.89,8.89,0,0,0,6.73-5.26Q51,24,57.06,12a36.74,36.74,0,0,1,3.11-5.1A48.25,48.25,0,0,1,63.83,3Z" fill="#f47f20"/></svg>