<svg xmlns="http://www.w3.org/2000/svg" viewBox="0 0 128 128"><path d="M118.51,54.49a54.2,54.2,0,0,1-35.34,51.33,11,11,0,0,0-5,3.7q-6.66,8.57-13.35,17.11c-1.43,1.83-2.1,1.82-3.51,0-4.65-6-9.32-12-13.94-18a12,12,0,0,0-4.84-3.76C28.11,98.46,18,88,12.64,73.15a56.5,56.5,0,0,1-2.84-25c2-21.25,18.3-40.82,41.32-46.51,29.84-7.38,58,11.19,65.48,38.48A50.91,50.91,0,0,1,118.51,54.49Zm-54-44.17a44.43,44.43,0,1,0-.24,88.85c24.8,0,43.83-20.17,44.11-44C108.7,30.11,87.84,10,64.54,10.32Z" fill="#f47f20"/><path d="M64.57,59.66a66.86,66.86,0,0,1,8.53,1,12.91,12.91,0,0,1,9.79,11.93c.19,3.83.07,7.67.11,11.5,0,.94-.54,1.32-1.29,1.65a34.94,34.94,0,0,1-10.65,2.57,60.5,60.5,0,0,1-23.64-2.57,1.6,1.6,0,0,1-1.35-1.86c.06-3.47,0-7,0-10.43A13.6,13.6,0,0,1,58.32,60.15c2.07-.19,4.15-.22,6.22-.32Z" fill="#f47f20"/><path d="M55.05,58c-8.77,3.49-12.21,10-11.7,19.18a39.06,39.06,0,0,1-4.22-.36c-3.71-.75-7.39-1.64-11.08-2.44-.8-.17-1-.6-1-1.35,0-3.6,0-7.2,0-10.8,0-6.13,4.8-12.19,10.85-13,4.09-.54,8.28-.28,12.43-.33a.94.94,0,0,1,.65.62A14.7,14.7,0,0,0,55.05,58Z" fill="#f47f20"/><path d="M74.1,58c.29-.4.49-.74.75-1a11.78,11.78,0,0,0,2.92-6.69c.1-1.13.61-1.53,1.77-1.48,2.83.1,5.67,0,8.51.11a13.52,13.52,0,0,1,12.83,12.76c.09,3.68.05,7.36.13,11a1.73,1.73,0,0,1-1.27,1.86A37.49,37.49,0,0,1,89,77l-3.28.33c0-.7,0-1.28,0-1.85.26-6.62-2.15-11.93-7.75-15.62A39.05,39.05,0,0,0,74.1,58Z" fill="#f47f20"/><path d="M64.5,59.14a10.82,10.82,0,1,1,.16-21.63,10.82,10.82,0,1,1-.16,21.63Z" fill="#f47f20"/><path d="M45.35,26.32c5.79,0,10.7,4.42,10.93,9.79a3.1,3.1,0,0,1-1.09,2.65,13.1,13.1,0,0,0-3.76,6.4,3,3,0,0,1-1.32,1.64c-6.53,3.34-14.35-1-15.39-8.31C33.88,32.64,38.81,26.07,45.35,26.32Z" fill="#f47f20"/><path d="M82.49,26.29a10.74,10.74,0,0,1,10.8,9.8,10.61,10.61,0,0,1-9.16,11.66,21.68,21.68,0,0,1-5-.39,1.5,1.5,0,0,1-1.33-1.47,12.05,12.05,0,0,0-4.84-8,2.58,2.58,0,0,1-1-2.94A10.84,10.84,0,0,1,82.49,26.29Z" fill="#f47f20"/></svg>