<svg xmlns="http://www.w3.org/2000/svg" viewBox="0 0 128 128"><path d="M9.42,54.26C9.11,28.45,28.12,6.77,52.28,1.35A54.61,54.61,0,0,1,83.2,105.81a11.4,11.4,0,0,0-5.12,3.78q-6.64,8.58-13.35,17.12c-1.36,1.74-2.05,1.72-3.43-.06-4.65-6-9.32-12-13.94-18a11.88,11.88,0,0,0-4.84-3.78A53.82,53.82,0,0,1,16.74,82.08a52.74,52.74,0,0,1-6.9-21.49C9.64,58.49,9.56,56.37,9.42,54.26ZM64.57,10.31a44.43,44.43,0,1,0-.27,88.86c24.8,0,43.84-20.15,44.12-44C108.72,30.11,87.86,10,64.57,10.31Z" fill="#f47f20"/><path d="M82.94,69.92c0,1.84-.06,3.68,0,5.51a1.7,1.7,0,0,1-1.34,2,71.3,71.3,0,0,1-8.4,2.24c-8.79,1.36-17.4.27-25.87-2.29a1.47,1.47,0,0,1-1.27-1.68c.09-3.87-.13-7.77.21-11.61A12.74,12.74,0,0,1,57,52.16a41.34,41.34,0,0,1,15.6.09A13.07,13.07,0,0,1,82.93,65c0,1.64,0,3.27,0,4.91Z" fill="#f47f20"/><path d="M75.33,40.08A10.78,10.78,0,0,1,53.78,40a10.78,10.78,0,1,1,21.55.12Z" fill="#f47f20"/></svg>