<svg xmlns="http://www.w3.org/2000/svg" viewBox="0 0 128 128"><path d="M63.75,111.37c-6.51,0-13,0-19.54,0a13.24,13.24,0,0,0-2.58.29c-2.14.43-3.06,1.63-3.18,4.06a60.31,60.31,0,0,1-.35,6.48A6.93,6.93,0,0,1,31.3,128c-3-.1-5.29-2.52-5.74-6.23-.26-2.21-.27-4.46-.61-6.65-.44-2.78-1.66-3.79-4.16-3.82-3.69,0-3.67,0-3.7-4.14-.08-12.81-.41-25.63-.18-38.44.14-7.77,1-15.53,1.77-23.27.67-7.13,1.55-14.25,2.38-21.37.24-2.09.55-4.17.91-6.24.85-4.75,3.36-8.09,7.33-9.92A83.32,83.32,0,0,1,56.12.4C70.26-1,83.85,1.46,97.08,7.05c6.22,2.63,8.77,7.86,9.82,14.69A385.4,385.4,0,0,1,111,84.35c-.07,7.12.13,14.24.2,21.36a25.47,25.47,0,0,1-.07,2.9c-.16,1.62-.89,2.68-2.48,2.78-.92.06-1.84.15-2.75.27-2,.26-2.8,1.18-2.87,3.39-.07,1.87,0,3.75,0,5.62,0,3.28-1.72,6-4.18,6.88a7.46,7.46,0,0,1-8.16-3,8.45,8.45,0,0,1-.73-5.78c.63-4.34-.9-6.93-4.81-7.13-5.25-.27-10.52-.13-15.79-.16-1.84,0-3.69,0-5.54,0ZM40.09,62.13a7.24,7.24,0,0,1-.58-1.93c-.07-2.54-.09-5.08,0-7.62C39.66,48,42.56,44,46.65,43.3A51.21,51.21,0,0,1,54.59,43c.26,0,.65.39.76.7.7,2,1.34,4,2.06,6.16-4.58,2.22-7.23,6.21-7.2,12.34h1.71c0-.52.08-.94.12-1.35.53-5.74,4.12-9.47,9.29-9.58,2.17,0,4.35,0,6.52,0a8.24,8.24,0,0,1,6.1,3C75.88,56.36,76.53,59,76.67,62a4,4,0,0,0,.84.13A5.16,5.16,0,0,0,78.4,62c.07-6.12-2.79-9.93-7.5-12.37a23.09,23.09,0,0,0,1.56-2.73c.37-.92.4-2,.79-2.92A1.78,1.78,0,0,1,74.51,43a48.1,48.1,0,0,1,5.37,0,9.26,9.26,0,0,1,8.36,8.2c.26,3.61.06,7.27.06,11,3.18,0,6.38.14,9.58,0,4-.21,5.65-2.7,5.07-7-.38-2.8-.74-5.61-1.1-8.42-.8-6.33-1.52-12.67-2.42-19-.6-4.17-2.13-5.5-6-5.66-.43,0-.87,0-1.3,0H36.29a15.82,15.82,0,0,0-1.95.06c-3.68.4-5.17,2-5.68,6.11-.36,2.93-.75,5.85-1.11,8.78-.8,6.33-1.64,12.66-2.36,19-.36,3.24,1.21,5.87,3.89,6.07C32.79,62.33,36.53,62.13,40.09,62.13ZM64,15.72H74.57c2.93,0,5.86,0,8.8,0,2.37-.05,3.13-1.72,1.93-4a3.45,3.45,0,0,0-3.45-2.06c-12,.09-24.11,0-36.16,0-2.46,0-3.63,1-3.66,3,0,2.19.92,3,3.54,3Zm26,72.08c0,4.14,2.8,7.23,6.48,7.2S103,91.92,103,87.67s-2.82-7.23-6.65-7.19C92.69,80.51,89.91,83.7,89.93,87.8Zm-58.39,7c3.81,0,6.66-3.2,6.62-7.43,0-3.78-2.94-6.92-6.41-6.93a6.67,6.67,0,0,0-6.65,7C25.1,91.82,27.73,94.84,31.54,94.84Z" fill="#f47f20"/><path d="M64.38,34.6c4,0,7.07,3.47,7.1,7.91s-3.15,8-7.21,8S57.18,47,57.19,42.57,60.27,34.59,64.38,34.6Z" fill="#f47f20"/><path d="M51.58,26.25a7.27,7.27,0,0,1,7.09,6.92,5.39,5.39,0,0,1-.73,2.41,47.47,47.47,0,0,1-2.26,4.3,4.08,4.08,0,0,1-1.61,1.78,6.38,6.38,0,0,1-7.6-1.9,8.61,8.61,0,0,1-1.39-8.71A7.1,7.1,0,0,1,51.58,26.25Z" fill="#f47f20"/><path d="M83.41,34.23c0,5.18-4.11,8.86-8.65,7.8A2,2,0,0,1,73,40.26a8.72,8.72,0,0,0-3-5.38c-1.07-.86-.81-2-.5-3.1,1-3.71,4.43-6.06,7.85-5.49S83.41,30.27,83.41,34.23Z" fill="#f47f20"/></svg>