<svg xmlns="http://www.w3.org/2000/svg" viewBox="0 0 64 64"><path d="M19.48,35.25V17.75c.1-.05.07-.14.08-.22a6.73,6.73,0,0,1,7-5.72h11a6.89,6.89,0,0,1,3.73,1,6.67,6.67,0,0,1,3.27,6c0,5.23,0,10.47,0,15.7a4.48,4.48,0,0,1,0,.64,2.21,2.21,0,0,1-2.13,2A2.25,2.25,0,0,1,40,35.29,5.3,5.3,0,0,1,39.94,34c0-4.39,0-8.79,0-13.19,0-.71.12-.62-.62-.62s-.54-.07-.54.53V60.8a3.06,3.06,0,0,1-2.5,3.1c-.14,0-.29,0-.4.1h-.5c-.09-.13-.24-.08-.36-.11a3,3,0,0,1-1.76-1.15,3.4,3.4,0,0,1-.64-2.19V38c0-.8,0-.78-.8-.81-.38,0-.45.11-.45.46q0,11.37,0,22.73c0,.21,0,.41,0,.61a3,3,0,0,1-2.44,2.86c-.11,0-.26,0-.35.11h-.65c0-.12-.16-.08-.24-.1a3.09,3.09,0,0,1-2.46-3.14c0-2.44,0-4.88,0-7.31V21c0-.89,0-.89-.87-.87-.22,0-.29.07-.29.29,0,.82,0,1.65,0,2.47V34.62a2.31,2.31,0,0,1-1.46,2.29,2.28,2.28,0,0,1-2.52-.58A3.79,3.79,0,0,1,19.48,35.25Z" fill="#f6944f"/><path d="M26.77,5.23a5.23,5.23,0,1,1,10.46,0,5.23,5.23,0,1,1-10.46,0Z" fill="#f6944f"/></svg>