<svg xmlns="http://www.w3.org/2000/svg" viewBox="0 0 128 128"><path d="M0,77.35V72c.09-.46.2-.92.26-1.38.37-3,.59-6,1.12-9A60.87,60.87,0,0,1,12.85,34.65C21,24,31.88,17.19,44.43,12.87a59.85,59.85,0,0,1,31.49-2.44,64.68,64.68,0,0,1,33.81,18.42c15.14,15.25,20.46,33.92,17.47,55a60.43,60.43,0,0,1-14,30.8c-1.08,1.28-2.25,2.5-3.53,3.91-6.81-20.19-20.53-31.73-41.39-34.7a26.51,26.51,0,0,0-2.43-52.61c-13.91-.74-26.18,9.39-28,22.74-1.64,12.44,6,26.74,22.2,29.91-21.12,2.93-34.76,14.56-41.6,34.78-2.07-2.5-3.94-4.61-5.64-6.85a59.59,59.59,0,0,1-12-28.12C.49,81.58.26,79.46,0,77.35Z" fill="#fff"/></svg>