<svg xmlns="http://www.w3.org/2000/svg" viewBox="0 0 128 128"><path d="M17.31,26.18l-2.62-2.3a3.36,3.36,0,0,1,.22-.36c1.6-1.89,3.19-3.8,4.81-5.68a14.26,14.26,0,0,1,3.74-2.95.92.92,0,0,1,1.18,0c.53.41,1.1.77,1.66,1.13A1.21,1.21,0,0,0,28,16c.39-.29.76-.61,1.17-.95-.42-.3-.79-.55-1.13-.83a4.19,4.19,0,0,1-.72-.74.93.93,0,0,1,.08-1.39,3.53,3.53,0,0,1,.58-.51c1.73-1.22,3.45-2.44,5.21-3.63a12.48,12.48,0,0,1,4.43-1.9,1.13,1.13,0,0,1,1.2.43c.4.5.81,1,1.23,1.5a1.09,1.09,0,0,0,1.53.36l1.06-.49c-.17-.32-.34-.59-.47-.88a11.66,11.66,0,0,1-.55-1.38A1,1,0,0,1,42,4.39a2.79,2.79,0,0,1,.33-.19,36.49,36.49,0,0,1,7.56-2.45c1.12-.2,2.26-.34,3.39-.5a1,1,0,0,1,1.07.54c.23.44.44.89.66,1.33.11.22.2.43.32.64.41.74.64.84,1.46.68l.13,0c.82-.16.82-.16.73-1,0-.47-.09-.94-.11-1.41A1.16,1.16,0,0,1,58.68.67a68.8,68.8,0,0,1,7-.63,19.29,19.29,0,0,1,4.41.61,1,1,0,0,1,.76.93c.13.74.27,1.48.41,2.22s.23.7.85.78l1.23.12a5.85,5.85,0,0,0,.36-1.6,7,7,0,0,1,.15-.82A1.1,1.1,0,0,1,75,1.44a5.71,5.71,0,0,1,1.08.14c2,.34,3.91.66,5.86,1a17.75,17.75,0,0,1,4.24,1.73,1.15,1.15,0,0,1,.58,1.27c-.07.6-.14,1.2-.2,1.8-.08.86.07,1.13.87,1.42,1.14.4.93.34,1.39-.56.24-.46.46-.93.71-1.38a.9.9,0,0,1,1.35-.45c2.14,1,4.28,1.94,6.4,3a13.55,13.55,0,0,1,3.24,2.35,1.62,1.62,0,0,1,.47,2c-.24.58-.42,1.18-.62,1.77a.81.81,0,0,0,.35,1.12c.31.23.64.43,1,.69l2.28-2.65a1.61,1.61,0,0,1,.23.12l5.56,4.66a14.72,14.72,0,0,1,3,3.54,1.57,1.57,0,0,1-.07,2c-.43.54-.79,1.13-1.19,1.69a.6.6,0,0,0,0,.82c.31.39.6.79.91,1.21.68-.44,1.32-.87,2-1.28s1.19-.43,1.74.34l3.59,5.07a13.56,13.56,0,0,1,2,4.2,1.49,1.49,0,0,1-.64,2c-.52.42-1,.87-1.54,1.29a.59.59,0,0,0-.18.8c.19.43.36.87.56,1.36a3.36,3.36,0,0,0,.5-.11c.59-.2,1.17-.43,1.77-.62a1,1,0,0,1,1.52.72c.79,2.13,1.6,4.24,2.33,6.38a12.84,12.84,0,0,1,.66,4.27,1.46,1.46,0,0,1-1,1.54,16.41,16.41,0,0,0-1.54.69,1.48,1.48,0,0,0-.55,2.2c.16.23.4.2.64.18.49-.06,1-.14,1.48-.18,1.24-.11,1.47.1,1.59,1.34.21,2.19.44,4.38.63,6.57a5.66,5.66,0,0,1-.1,1.29c-.18,1.1-.37,2.21-.57,3.31a.77.77,0,0,1-.67.69l-1.64.35c-.15,0-.3,0-.45.09-1.09.26-1.32.59-1.27,1.72,0,.34.14.52.47.57.53.1,1.06.2,1.59.32,1,.23,1.26.59,1.11,1.61a53.21,53.21,0,0,1-1.17,6.75A21.54,21.54,0,0,1,123.75,86a1.33,1.33,0,0,1-1.41.79c-.67-.06-1.34-.09-2-.13a1,1,0,0,0-1.15.74c-.45,1-.46,1,.56,1.5.38.17.76.33,1.11.53a1.13,1.13,0,0,1,.59,1.62c-.31.76-.65,1.51-1,2.25-.54,1.2-1.09,2.4-1.66,3.59a13.89,13.89,0,0,1-2.69,3.77,1.54,1.54,0,0,1-1.82.4c-.58-.22-1.18-.4-1.77-.61a1,1,0,0,0-1.2.36l-.72,1c.13.13.24.25.37.36.54.46,1.11.89,1.63,1.37s.54.84.14,1.31c-1.81,2.14-3.36,4.51-5.56,6.3-.89.72-1.8,1.41-2.71,2.09-.43.32-.47.3-.92,0-.67-.46-1.34-.95-2-1.39a1.52,1.52,0,0,0-2.11.67.68.68,0,0,0,.1.53c.3.47.64.92.95,1.39a1.13,1.13,0,0,1-.34,1.86c-1.78,1.25-3.56,2.51-5.35,3.75a13.69,13.69,0,0,1-4.25,1.86,1.13,1.13,0,0,1-1.39-.47A17.06,17.06,0,0,0,88,120.06a1.48,1.48,0,0,0-2.27,0,.52.52,0,0,0-.08.59c.19.57.39,1.14.57,1.72.26.86.06,1.24-.77,1.55-1.92.72-3.83,1.46-5.76,2.14a14.11,14.11,0,0,1-4.12.78h-.9a1.29,1.29,0,0,1-1.28-.9c-.27-.62-.56-1.22-.87-1.81a1,1,0,0,0-1.23-.57c-1.07.21-1.07.21-1,1.31,0,.43.08.86.08,1.3a1.06,1.06,0,0,1-1,1.21,43.27,43.27,0,0,1-9,.54,22.61,22.61,0,0,1-2.3-.41,1.17,1.17,0,0,1-1-1.12c-.11-.75-.25-1.49-.4-2.23-.11-.53-.19-.59-.73-.65l-1.41-.15c-.1.56-.19,1.06-.29,1.56-.06.3-.1.6-.17.89a.94.94,0,0,1-1.17.84c-.6-.06-1.2-.17-1.79-.28-1.7-.29-3.4-.57-5.09-.92a12.82,12.82,0,0,1-3.28-1.16l-.85-.46a1.33,1.33,0,0,1-.74-1.51c.1-.6.13-1.2.17-1.8a1,1,0,0,0-.72-1.22c-.35-.15-.72-.26-1.14-.41-.14.32-.27.61-.38.91s-.25.74-.39,1.1c-.35.9-.73,1.07-1.65.72-.37-.14-.73-.28-1.08-.44-1.72-.81-3.44-1.6-5.14-2.44a14.58,14.58,0,0,1-3.45-2.49c-.74-.7-.8-1-.46-1.88.22-.61.42-1.23.63-1.84a.9.9,0,0,0-.29-1c-.94-.87-1-.87-1.87.09-.29.33-.56.66-.86,1a1,1,0,0,1-1.48.12c-1.91-1.59-3.81-3.18-5.68-4.81A11.78,11.78,0,0,1,15,104.87a1.5,1.5,0,0,1,.13-1.9c.43-.54.79-1.13,1.19-1.69a.59.59,0,0,0,0-.82c-.3-.39-.59-.79-.9-1.21l-.56.33c-.54.35-1.08.72-1.63,1.06a.9.9,0,0,1-1.43-.3c-1-1.43-2-2.85-3-4.3a23.92,23.92,0,0,1-1.66-2.61,16,16,0,0,1-.95-2.61A1.66,1.66,0,0,1,6.73,89c.39-.35.8-.67,1.19-1A1.56,1.56,0,0,0,8,85.76a.56.56,0,0,0-.66-.09L6,86.11a5,5,0,0,1-.63.18,1,1,0,0,1-1.17-.6,43,43,0,0,1-2.72-7.94c-.19-1.06-.23-2.14-.34-3.22a.9.9,0,0,1,.59-1c.64-.29,1.28-.62,1.92-.92a1.21,1.21,0,0,0,.75-1.42c-.06-.36-.11-.72-.17-1.13l-1.37.31a6.38,6.38,0,0,1-.76.15A1.19,1.19,0,0,1,.66,69.46c-.14-.9-.23-1.8-.31-2.7C.23,65.53.14,64.31,0,63.08a13.79,13.79,0,0,1,.32-3.79c.08-.38.15-.76.21-1.15.11-.65.26-.84.92-1s1.27-.26,1.9-.4l.44-.1c.66-.19.86-.44.84-1.11,0-.32,0-.64-.08-1l-2-.36c-.89-.17-1.26-.61-1.13-1.49a68.43,68.43,0,0,1,1.31-7.39,15.08,15.08,0,0,1,1.32-3.16,1.59,1.59,0,0,1,1.73-.95c.62.08,1.25.11,1.88.13A1.4,1.4,0,0,0,9,39.71a.92.92,0,0,0-.43-.44c-.49-.27-1-.5-1.5-.76-.82-.43-.95-.8-.58-1.62.9-2,1.79-4,2.74-5.94A17.16,17.16,0,0,1,12,27.16a1.13,1.13,0,0,1,1.39-.33c.69.25,1.38.49,2.08.7s.88.11,1.26-.44C16.93,26.82,17.09,26.54,17.31,26.18Zm-10.4,38c-.06,31.7,25.79,57,57.25,57A57.12,57.12,0,0,0,64,6.9C32.42,6.65,6.92,32.54,6.91,64.17Z" fill="#fff"/><path d="M119.73,64a55.75,55.75,0,1,1-55-55.78A55.75,55.75,0,0,1,119.73,64ZM63.81,16.1a48.88,48.88,0,0,0,0,97.75c27.15.34,49.05-22.33,49.09-48.48A49,49,0,0,0,63.81,16.1Z" fill="#fff"/><path d="M17.94,64.24c0-25.16,21-45.71,46.08-45.7a46.14,46.14,0,1,1-.31,92.27C38.69,110.58,18,90.66,17.94,64.24ZM95.1,95.85V95q0-10.82,0-21.62c0-3.5,0-7-.12-10.49-.06-2.67-.14-5.35-.34-8q-.39-5.16-1-10.31c-.37-3.12-.82-6.24-1.3-9.35a5.7,5.7,0,0,0-3.55-4.6,31.7,31.7,0,0,0-8.48-2.23c-2.08-.27-4.17-.45-6.25-.55-3.62-.16-7.25-.31-10.87-.32a125.05,125.05,0,0,0-14.08.74,42.34,42.34,0,0,0-7.06,1.28,14.19,14.19,0,0,0-4.37,2,4,4,0,0,0-1.8,2.93c-.28,2.42-.6,4.84-.9,7.26-.39,3.28-.85,6.55-1.15,9.83s-.59,6.76-.7,10.14c-.16,4.48-.17,9-.2,13.46,0,5.2,0,10.41,0,15.61,0,1.42,0,2.85,0,4.27,0,.11,0,.22,0,.33a.37.37,0,0,0,.39.41h6.67c.21,0,.42,0,.72,0,0-.83,0-1.62,0-2.41s0-1.62,0-2.45H87.32c0,.21,0,.37,0,.54,0,1.1,0,2.2,0,3.3,0,.24,0,.48,0,.72a.35.35,0,0,0,.36.37h6.67C94.6,95.9,94.81,95.87,95.1,95.85Z" fill="#fff"/><path d="M64.09,65.69H41.37a11,11,0,0,1-2.06-.18,2.35,2.35,0,0,1-2-2.32,19.07,19.07,0,0,1,0-2c.25-4,.49-8,.77-12,.17-2.36.4-4.73.64-7.09a9.29,9.29,0,0,1,.42-2,2.41,2.41,0,0,1,2.45-1.84l1,0h35.6l7.38,0a8.32,8.32,0,0,1,1.41.14,2.15,2.15,0,0,1,2,1.88c.16.91.28,1.83.36,2.75.29,3.31.59,6.62.83,9.93.21,2.95.35,5.9.51,8.86a8,8,0,0,1,0,1.29,2.38,2.38,0,0,1-2.34,2.39c-.79.07-1.59.11-2.38.11q-10.95,0-21.88,0Z" fill="#fff"/><path d="M56.5,34.15c0-.79,0-1.47,0-2.16,0-.4.11-.46.53-.49h14c.53,0,.57,0,.58.6s0,1,0,1.56-.08.5-.54.53H57.41C57.13,34.2,56.86,34.17,56.5,34.15Z" fill="#fff"/><path d="M38.24,75.5a3.63,3.63,0,0,1,7.26,0,3.63,3.63,0,0,1-7.26,0Z" fill="#fff"/><path d="M89.82,75.55a3.59,3.59,0,0,1-3.65,3.58,3.53,3.53,0,0,1-3.53-3.68,3.5,3.5,0,0,1,3.6-3.54A3.56,3.56,0,0,1,89.82,75.55Z" fill="#fff"/></svg>