<svg xmlns="http://www.w3.org/2000/svg" viewBox="0 0 128 128"><path d="M84,115.94q-17.86,0-35.73,0a7.87,7.87,0,0,1-8.14-6.8,7.79,7.79,0,0,1,6.3-8.83,20.39,20.39,0,0,1,3.12-.24q34.71,0,69.44,0a9.33,9.33,0,0,1,6.11,1.84,7.91,7.91,0,0,1-5.13,14q-14.79,0-29.58,0Z" fill="#f47f20"/><path d="M83.94,75.86q-17.93,0-35.84,0a7.86,7.86,0,1,1-.23-15.71h72.3a7.85,7.85,0,0,1,.11,15.7C108.17,75.89,96.05,75.86,83.94,75.86Z" fill="#f47f20"/><path d="M84,35.84H48.3c-4.36,0-7.34-2.44-8.15-6.61a7.86,7.86,0,0,1,7.46-9.15c7.43,0,14.87,0,22.31,0h50.13a8,8,0,0,1,7.73,6,7.71,7.71,0,0,1-4.29,9,10,10,0,0,1-4,.78C107.67,35.86,95.85,35.84,84,35.84Z" fill="#f47f20"/><path d="M0,63.91A11.69,11.69,0,0,1,12.11,52.13c6.63,0,11.72,5.39,11.68,12.25,0,6.38-5.55,11.55-12.22,11.49A11.77,11.77,0,0,1,0,63.91Z" fill="#f47f20"/><path d="M0,23.91a11.9,11.9,0,0,1,23.79-.09,11.85,11.85,0,0,1-11.93,12A11.71,11.71,0,0,1,0,23.91Z" fill="#f47f20"/><path d="M0,103.87A11.73,11.73,0,0,1,11.94,92.16,11.77,11.77,0,0,1,23.79,104.1,11.9,11.9,0,1,1,0,103.87Z" fill="#f47f20"/></svg>